<?xml version="1.0" encoding="UTF-8" standalone="no"?>
<svg
   id="LOGO"
   version="1.1"
   viewBox="0 0 1424 733.5"
   sodipodi:docname="alc-2.svg"
   inkscape:version="1.4.2 (ebf0e940, 2025-05-08)"
   xmlns:inkscape="http://www.inkscape.org/namespaces/inkscape"
   xmlns:sodipodi="http://sodipodi.sourceforge.net/DTD/sodipodi-0.dtd"
   xmlns="http://www.w3.org/2000/svg"
   xmlns:svg="http://www.w3.org/2000/svg">
  <sodipodi:namedview
     id="namedview55"
     pagecolor="#ffffff"
     bordercolor="#000000"
     borderopacity="0.25"
     inkscape:showpageshadow="2"
     inkscape:pageopacity="0.0"
     inkscape:pagecheckerboard="0"
     inkscape:deskcolor="#d1d1d1"
     inkscape:zoom="0.58426966"
     inkscape:cx="711.14423"
     inkscape:cy="367.125"
     inkscape:window-width="1712"
     inkscape:window-height="942"
     inkscape:window-x="1512"
     inkscape:window-y="25"
     inkscape:window-maximized="0"
     inkscape:current-layer="LOGO" />
  <!-- Generator: Adobe Illustrator 29.3.1, SVG Export Plug-In . SVG Version: 2.1.0 Build 151)  -->
  <defs
     id="defs1">
    <inkscape:path-effect
       effect="fillet_chamfer"
       id="path-effect1"
       is_visible="true"
       lpeversion="1"
       nodesatellites_param="F,0,0,1,0,0,0,1 @ F,0,0,1,0,0,0,1 @ F,0,0,1,0,0,0,1 @ F,0,0,1,0,0,0,1"
       radius="0"
       unit="px"
       method="auto"
       mode="F"
       chamfer_steps="1"
       flexible="false"
       use_knot_distance="true"
       apply_no_radius="true"
       apply_with_radius="true"
       only_selected="false"
       hide_knots="false" />
    <style
       id="style1">
      .st0 {
        fill: #1e5df8;
      }

      .st1 {
        fill: #fff;
      }

      .st2 {
        fill: #2e2d62;
      }

      .st3 {
        fill: #003088;
      }
    </style>
  </defs>
  <rect
     style="fill:#ffffff"
     id="rect55"
     width="1424"
     height="733.5"
     x="0"
     y="0"
     sodipodi:type="rect" />
  <rect
     class="st2"
     x="85"
     y="85"
     width="283.5"
     height="283.5"
     id="rect1" />
  <path
     class="st1"
     d="M337.3,116.2h-33.1l-44.4,47.3v-47.3h-64.2v62.8c0,13.4-10,21.3-23.2,21.3s-23.2-7.8-23.2-21.3v-62.8h-33.1v63.3c0,28.3,22.9,44.6,48.7,47.2h-48.7v110.5h33.1v-41h14.4l30.5,41h143v-22.3h-38.7v-65.9h38.7v-29.2l-47.4-48.5,47.4-48.4v-6.8ZM226.8,193v51.3c-7-11.9-23.2-17.4-47.2-17.5,21.4-2.2,41.3-13.7,47.2-33.8ZM149.3,249.1h30.2c12.4,0,17.5,4.8,17.5,12.4s-5,12.5-17.5,12.5h-30.2v-24.9ZM265.5,315h-38.7v15.5l-27.3-35.7c20.8-3.8,31.5-14.6,31.5-33.3s-.7-8.7-2-12.4h36.5v65.9ZM304.3,226.8h-44.4v-47.4l44.4,47.4Z"
     id="path1" />
  <polygon
     class="st3"
     points="395.5 85 572 317.1 572 200.6 652 200.6 652 85 395.5 85"
     id="polygon1" />
  <polygon
     class="st0"
     points="572 200.6 572 317.1 395.5 85 368.5 49.5 368.5 85 368.5 368.5 652 368.5 652 200.6 572 200.6"
     id="polygon2" />
  <path
     class="st2"
     d="M746.1,172.9c-12.3,0-20.8-8-20.8-18.6h10.5c1,7,6.8,8.6,10.3,8.6s8.2-1,8.2-6.2-4.6-6.7-9.2-8.4c-7.6-3-18.3-6.6-18.3-17.3s8.3-15.3,18.3-15.3,18.2,7.8,18.2,15h-10.3c-.6-3.1-4-5.1-8-5.1s-7.1,1.9-7.1,5.5,3.1,4.8,8.6,7.3c5.9,2.7,18.4,5.8,18.4,18.5s-8.6,16.1-18.8,16.1Z"
     id="path2" />
  <path
     class="st2"
     d="M790.3,172.9c-11.2,0-20.3-8.6-20.3-20.4s9.5-20.6,20.7-20.6,17,5.7,19.2,15.1h-10.9c-1.7-3.3-4.7-5.4-8.5-5.4-5.6,0-10.1,4.5-10.1,10.8s4.5,10.8,10.1,10.8,6.4-1.8,8.2-4.8h11c-2.6,9.6-10.9,14.6-19.4,14.6Z"
     id="path3" />
  <path
     class="st2"
     d="M816.1,121.1c0-3.9,3.1-6.8,6.9-6.8s6.8,3,6.8,6.8-3.1,6.8-6.8,6.8-6.9-3.1-6.9-6.8ZM828.2,172.5h-10.3v-40.2h10.3v40.2Z"
     id="path4" />
  <path
     class="st2"
     d="M875.1,155.5h-29.4c1.2,6.1,6.2,8.4,10.5,8.4s7.8-3.4,7.8-3.4h10.1c-3.1,8-10.4,12.5-18.3,12.5s-20.3-8.3-20.3-20.8,9.4-20.2,20-20.2,20.7,7.2,19.5,23.6ZM846.4,147.4h18.1c-1.2-4.7-4.5-6.7-8.5-6.7s-8,2.5-9.6,6.7Z"
     id="path5" />
  <path
     class="st2"
     d="M920.7,150.7v21.8h-10.7v-19.4c0-1.4,1-11.5-6.8-11.9-3.8-.2-10.5,1.8-10.5,12.4v18.9h-10.6v-40.2h8.2l1.4,4.9h1.4c1.7-2,5.5-5.3,12.2-5.3,10.4,0,15.4,7.7,15.4,18.8Z"
     id="path6" />
  <path
     class="st2"
     d="M947.9,172.9c-11.2,0-20.3-8.6-20.3-20.4s9.5-20.6,20.7-20.6,17,5.7,19.2,15.1h-10.9c-1.7-3.3-4.7-5.4-8.5-5.4-5.6,0-10.1,4.5-10.1,10.8s4.5,10.8,10.1,10.8,6.4-1.8,8.2-4.8h11c-2.6,9.6-10.9,14.6-19.4,14.6Z"
     id="path7" />
  <path
     class="st2"
     d="M1012.4,155.5h-29.4c1.2,6.1,6.2,8.4,10.5,8.4s7.8-3.4,7.8-3.4h10.1c-3.1,8-10.4,12.5-18.3,12.5s-20.3-8.3-20.3-20.8,9.4-20.2,20-20.2,20.7,7.2,19.5,23.6ZM983.6,147.4h18.1c-1.2-4.7-4.5-6.7-8.5-6.7s-8,2.5-9.6,6.7Z"
     id="path8" />
  <path
     class="st2"
     d="M1079.7,164.8v7.7h-2.4c-4.7,0-8-1.7-9.3-5.1-2.4,3.3-6.4,5.5-12.7,5.5-9.1,0-14.9-4.7-14.9-11.9,0-12.5,17.1-13.7,24.8-14.1-.2-4.7-2.7-6.4-6.8-6.4s-6.1,3.5-6.1,3.5h-10.1c.7-7.2,6.6-12.1,16.4-12.1s16.3,4.7,16.3,16.4v10.7c0,4.7,1.7,5.8,4.7,5.8ZM1065,155.6v-.8c-7.3.8-14.6,1.7-14.6,5.9,0,6.1,13.9,5.6,14.6-5.1Z"
     id="path9" />
  <path
     class="st2"
     d="M1124.2,150.7v21.8h-10.7v-19.4c0-1.4,1-11.5-6.8-11.9-3.8-.2-10.5,1.8-10.5,12.4v18.9h-10.6v-40.2h8.2l1.4,4.9h1.4c1.7-2,5.5-5.3,12.2-5.3,10.4,0,15.4,7.7,15.4,18.8Z"
     id="path10" />
  <path
     class="st2"
     d="M1170.3,115.4v57.1h-7.9l-1.1-3.9h-1.2c-2.5,2.7-5.9,4.3-10.2,4.3-10.2,0-18.7-8.4-18.7-20.5s8.5-20.5,18.7-20.5,7.8,1.4,10.4,4.3v-20.8h10.1ZM1160.2,152.4c0-6.7-3.6-10.6-8.8-10.6s-9.8,3.5-9.8,10.6,4.9,10.6,9.8,10.6,8.8-3.9,8.8-10.6Z"
     id="path11" />
  <path
     class="st2"
     d="M764,208.6h-15.2v46.3h-10.8v-46.3h-15.2v-10h41.2v10Z"
     id="path12" />
  <path
     class="st2"
     d="M800.2,237.9h-29.4c1.2,6.1,6.2,8.4,10.5,8.4s7.8-3.4,7.8-3.4h10.1c-3.1,8-10.4,12.5-18.3,12.5s-20.3-8.3-20.3-20.8,9.4-20.2,20-20.2,20.7,7.2,19.5,23.6ZM771.5,229.7h18.1c-1.2-4.7-4.5-6.7-8.5-6.7s-8,2.5-9.6,6.7Z"
     id="path13" />
  <path
     class="st2"
     d="M826.2,255.3c-11.2,0-20.3-8.6-20.3-20.4s9.5-20.6,20.7-20.6,17,5.7,19.2,15.1h-10.9c-1.7-3.3-4.7-5.4-8.5-5.4-5.6,0-10.1,4.5-10.1,10.8s4.5,10.8,10.1,10.8,6.4-1.8,8.2-4.8h11c-2.6,9.6-10.9,14.6-19.4,14.6Z"
     id="path14" />
  <path
     class="st2"
     d="M890.8,233.1v21.8h-10.8v-19.4c0-3.9.6-11.9-6.6-11.9s-10.4,1.8-10.4,12.4v18.9h-10.8v-57.1h10.2v21.1h1.4c1.9-2,5.6-4.6,11.6-4.6,10.4,0,15.4,7.7,15.4,18.8Z"
     id="path15" />
  <path
     class="st2"
     d="M938.8,233.1v21.8h-10.7v-19.4c0-1.4,1-11.5-6.8-11.9-3.8-.2-10.5,1.8-10.5,12.4v18.9h-10.6v-40.2h8.2l1.4,4.9h1.4c1.7-2,5.5-5.3,12.2-5.3,10.4,0,15.4,7.7,15.4,18.8Z"
     id="path16" />
  <path
     class="st2"
     d="M945.8,234.9c0-12.9,10-20.6,20.7-20.6s20.3,7.8,20.3,20.4-9.8,20.6-20.7,20.6-20.4-7.8-20.4-20.4ZM976.3,234.8c0-6.3-3.7-11.2-9.8-11.2s-10.2,4.9-10.2,11.2,4.1,11.2,10.2,11.2,9.8-4.9,9.8-11.2Z"
     id="path17" />
  <path
     class="st2"
     d="M1004.2,197.8v57.1h-10.5v-57.1h10.5Z"
     id="path18" />
  <path
     class="st2"
     d="M1011.2,234.9c0-12.9,10-20.6,20.7-20.6s20.3,7.8,20.3,20.4-9.8,20.6-20.7,20.6-20.4-7.8-20.4-20.4ZM1041.8,234.8c0-6.3-3.7-11.2-9.8-11.2s-10.2,4.9-10.2,11.2,4.1,11.2,10.2,11.2,9.8-4.9,9.8-11.2Z"
     id="path19" />
  <path
     class="st2"
     d="M1093.1,258.1c-.3,9.1-8.6,13.3-18.2,13.3s-19.6-7.2-17.8-15.8l4.6-3.7c-2.6-1.6-4.3-4.1-4.3-7.1s2.1-5.6,5-7.2c-2.7-2.5-4.1-5.9-4.1-9.6,0-7.7,5.9-13.8,16.1-13.8s6.7.7,9.2,2c4.3-2,6.8-5.2,6.8-5.2l5,6.7s-2.7,1.8-6.4,3c1.5,2.1,2.3,4.6,2.3,7.2,0,7.6-7,13.8-17.1,13.8s-4-.2-5.7-.7c-.6.4-1.2,1-1.2,2,0,2.9,4.4,2.4,7.2,2.4h5.6c8.8,0,13.3,6,13,12.8ZM1083.2,257.8c0-2.2-1.8-3.9-6.3-3.9s-5.4,0-7.7,0l-2.7,2.9c-.5,2,1.5,5.3,8.6,5.3s8.1-1.7,8.1-4.3ZM1068,227.8c0,3.1,2.2,5.3,6.8,5.3s6.8-2.2,6.8-5.3-2.2-5.1-6.8-5.1-6.8,2-6.8,5.1Z"
     id="path20" />
  <path
     class="st2"
     d="M1141.8,214.7l-14,41.7c-2.3,6.7-4.9,15-17,15s-11-2.9-12.2-4.4l5.1-7.2c.4.4,2.9,2.5,6.3,2.5s5.6-1.4,6.5-4.1l1.1-3.3h-5.4l-13.8-40.2h11.2l10.1,29.3h1.6l9.8-29.3h10.8Z"
     id="path21" />
  <path
     class="st2"
     d="M737.6,291.2v12.5h21.5v9.9h-21.5v23.6h-10.8v-56.3h37.1v10.2h-26.3Z"
     id="path22" />
  <path
     class="st2"
     d="M805.3,329.6v7.7h-2.4c-4.7,0-8-1.7-9.3-5.1-2.4,3.3-6.4,5.5-12.7,5.5-9.1,0-14.9-4.7-14.9-11.9,0-12.5,17.1-13.7,24.8-14.1-.2-4.7-2.7-6.4-6.8-6.4s-6.1,3.5-6.1,3.5h-10.1c.7-7.2,6.6-12.1,16.4-12.1s16.3,4.7,16.3,16.4v10.7c0,4.7,1.7,5.8,4.7,5.8ZM790.6,320.4v-.8c-7.3.8-14.6,1.7-14.6,5.9,0,6.1,13.9,5.6,14.6-5.1Z"
     id="path23" />
  <path
     class="st2"
     d="M829.1,337.7c-11.2,0-20.3-8.6-20.3-20.4s9.5-20.6,20.7-20.6,17,5.7,19.2,15.1h-10.9c-1.7-3.3-4.7-5.4-8.5-5.4-5.6,0-10.1,4.5-10.1,10.8s4.5,10.8,10.1,10.8,6.4-1.8,8.2-4.8h11c-2.6,9.6-10.9,14.6-19.4,14.6Z"
     id="path24" />
  <path
     class="st2"
     d="M854.9,285.8c0-3.9,3.1-6.8,6.9-6.8s6.8,3,6.8,6.8-3.1,6.8-6.8,6.8-6.9-3.1-6.9-6.8ZM867,337.3h-10.3v-40.2h10.3v40.2Z"
     id="path25" />
  <path
     class="st2"
     d="M886.3,280.2v57.1h-10.5v-57.1h10.5Z"
     id="path26" />
  <path
     class="st2"
     d="M894,285.8c0-3.9,3.1-6.8,6.9-6.8s6.8,3,6.8,6.8-3.1,6.8-6.8,6.8-6.9-3.1-6.9-6.8ZM906,337.3h-10.3v-40.2h10.3v40.2Z"
     id="path27" />
  <path
     class="st2"
     d="M943.8,334.3s-3.4,3.4-9.6,3.4-14.4-5.2-14.4-13.3v-18.7h-8v-7.9h4c2.7,0,4.6-1.8,4.6-4.7v-8h9.7v12.1h10.1v8.6h-10.1v18c0,2.7,2.3,4.8,5.1,4.8s4.7-1.4,4.7-1.4l3.9,7.2Z"
     id="path28" />
  <path
     class="st2"
     d="M946.4,285.8c0-3.9,3.1-6.8,6.9-6.8s6.8,3,6.8,6.8-3.1,6.8-6.8,6.8-6.9-3.1-6.9-6.8ZM958.5,337.3h-10.3v-40.2h10.3v40.2Z"
     id="path29" />
  <path
     class="st2"
     d="M1005.4,320.3h-29.4c1.2,6.1,6.2,8.4,10.5,8.4s7.8-3.4,7.8-3.4h10.1c-3.1,8-10.4,12.5-18.3,12.5s-20.3-8.3-20.3-20.8,9.4-20.2,20-20.2,20.7,7.2,19.5,23.6ZM976.7,312.1h18.1c-1.2-4.7-4.5-6.7-8.5-6.7s-8,2.5-9.6,6.7Z"
     id="path30" />
  <path
     class="st2"
     d="M1027.4,305.2c-3.4,0-4.8,1.7-4.8,3.4,0,2.7,3.6,3.5,6,4,7.2,1.5,14.4,3.7,14.4,12.2s-6.8,12.9-15.1,12.9-16.4-5.6-16.9-14.2h9.9c.2,2.4,1.8,5.5,6.8,5.5s5.1-2.2,5.1-3.9c0-3-2.8-3.9-5.5-4.5-4.7-1-15-3-15-12.1s7.6-11.9,15.4-11.9,15,5.5,15.4,12.2h-9.9c-.3-1.4-1.6-3.7-5.7-3.7Z"
     id="path31" />
  <path
     class="st2"
     d="M1115.5,320.4c-3.2,10.8-12.2,17.3-23.1,17.3s-25.4-12.1-25.4-28.5,10.6-28.5,25.3-28.5,19.9,6.5,23.2,17.3h-12.1c-2.1-4.5-5.9-6.7-10.9-6.7-9.2,0-14.4,7.5-14.4,17.9s5.3,17.9,14.6,17.9,8.6-2.2,10.7-6.7h12.1Z"
     id="path32" />
  <path
     class="st2"
     d="M1120,317.3c0-12.9,10-20.6,20.7-20.6s20.3,7.8,20.3,20.4-9.8,20.6-20.7,20.6-20.4-7.8-20.4-20.4ZM1150.5,317.2c0-6.3-3.7-11.2-9.8-11.2s-10.2,4.9-10.2,11.2,4.1,11.2,10.2,11.2,9.8-4.9,9.8-11.2Z"
     id="path33" />
  <path
     class="st2"
     d="M1206.4,297.1v40.2h-8l-1.4-4.5h-1c-1.6,2-5.1,4.9-11.7,4.9-10.7,0-16.2-7.6-16.2-18.8v-21.8h10.9v19.4c0,5,.4,11.9,7.3,11.9s9.3-1.8,9.3-12.4v-18.9h10.9Z"
     id="path34" />
  <path
     class="st2"
     d="M1254.5,315.5v21.8h-10.7v-19.4c0-1.4,1-11.5-6.8-11.9-3.8-.2-10.5,1.8-10.5,12.4v18.9h-10.6v-40.2h8.2l1.4,4.9h1.4c1.7-2,5.5-5.3,12.2-5.3,10.4,0,15.4,7.7,15.4,18.8Z"
     id="path35" />
  <path
     class="st2"
     d="M1281.8,337.7c-11.2,0-20.3-8.6-20.3-20.4s9.5-20.6,20.7-20.6,17,5.7,19.2,15.1h-10.9c-1.7-3.3-4.7-5.4-8.5-5.4-5.6,0-10.1,4.5-10.1,10.8s4.5,10.8,10.1,10.8,6.4-1.8,8.2-4.8h11c-2.6,9.6-10.9,14.6-19.4,14.6Z"
     id="path36" />
  <path
     class="st2"
     d="M1307.6,285.8c0-3.9,3.1-6.8,6.9-6.8s6.8,3,6.8,6.8-3.1,6.8-6.8,6.8-6.9-3.1-6.9-6.8ZM1319.7,337.3h-10.3v-40.2h10.3v40.2Z"
     id="path37" />
  <path
     class="st2"
     d="M1339,280.2v57.1h-10.5v-57.1h10.5Z"
     id="path38" />
  <g
     id="g55">
    <path
       class="st2"
       d="M140.7,501.3h-34.5l-7.9,23.7h-12l30.3-86.8h13.9l30.3,86.8h-12l-7.9-23.7ZM137.3,491.6l-13.5-40.2h-.9l-13.5,40.2h27.9Z"
       id="path39" />
    <path
       class="st2"
       d="M227.5,436.9v88h-8.9l-1-8.8h-.7c-3.1,4.3-9.2,10-20,10-16.6,0-28.5-13-28.5-32.4s12.2-32.1,28.5-32.1,16.7,5.1,19.8,9.4v-34.2h10.8ZM216.7,493.8c0-13.4-7.3-22.6-18.5-22.6s-19.1,9.2-19.1,22.6,7.8,22.8,19.1,22.8,18.5-9.2,18.5-22.8Z"
       id="path40" />
    <path
       class="st2"
       d="M303.3,516.4v7.8c-2,.7-4,1.4-7.2,1.4-6.1,0-11.4-2.6-12.9-8.8-4.2,5.7-11.4,9.4-20.7,9.4s-20.5-5.6-20.5-17.7,8.9-17.7,21.1-19l18.5-1.7v-3.5c0-8.4-4.6-13.6-12.9-13.6s-12.2,5.1-13.4,11.8h-10.8c1.2-11.9,9.9-20.7,24.2-20.7s23.8,7.8,23.8,22.8v26c0,5.1,2.4,6.8,6.2,6.8s3-.4,4.6-1ZM281.6,495.7l-15,1.5c-8.1.7-13.6,4.3-13.6,10.9s5.1,9.4,11,9.4,17.6-4.3,17.6-16.4v-5.5Z"
       id="path41" />
    <path
       class="st2"
       d="M402.3,514.8v10.2h-55.7v-86.8h11v76.6h44.6Z"
       id="path42" />
    <path
       class="st2"
       d="M410.1,494c0-18.6,13-32.2,31.1-32.2s31.2,13.8,31.2,32.2-13.3,32.2-31.2,32.2-31.1-13.9-31.1-32.2ZM461.7,494c0-12.4-8.3-22.7-20.5-22.7s-20.2,10.3-20.2,22.7,8.1,22.7,20.2,22.7,20.5-10.4,20.5-22.7Z"
       id="path43" />
    <path
       class="st2"
       d="M477.8,463h11.3l18.6,50.7h.9l18.6-50.7h11.3l-23.6,62h-13.5l-23.6-62Z"
       id="path44" />
    <path
       class="st2"
       d="M600.5,496.6h-46.2c.6,12.3,7.8,20.7,19.3,20.7s14.1-3.6,16.2-10.4h10.5c-2.7,12.3-13,19.3-26.8,19.3s-30.1-12.5-30.1-31.6,12.9-32.9,29.6-32.9,27.7,10.3,27.7,31-.1,2.4-.2,3.8ZM554.4,488.6h35.8c-.1-10.7-7.1-18-17.1-18s-17.6,7.9-18.7,18Z"
       id="path45" />
    <path
       class="st2"
       d="M615.6,436.9h10.8v88h-10.8v-88Z"
       id="path46" />
    <path
       class="st2"
       d="M697.8,516.5v8.4h-5c-5.8,0-9.7-2-11-7.9-4.3,5.6-11.3,9.2-20.5,9.2s-20.5-5.6-20.5-17.7,8.9-17.7,21.1-19l18.5-1.7v-3.5c0-8.4-4.6-13.6-12.9-13.6s-12.2,5.1-13.4,11.8h-10.8c1.2-11.9,9.9-20.7,24.2-20.7s23.8,7.8,23.8,22.8v26.9c0,3.6,1.6,5.1,4.8,5.1h1.6ZM680.5,495.7l-15,1.5c-8.1.7-13.6,4.3-13.6,10.9s5.1,9.4,11,9.4,17.6-4.3,17.6-16.4v-5.5Z"
       id="path47" />
    <path
       class="st2"
       d="M706,494.3c0-18.8,12.9-32.6,30.8-32.6s25.8,7.8,28,22.2h-10.9c-1.6-6.8-7.8-12.6-17.1-12.6s-19.8,10-19.8,23.1,7.6,22.3,20,22.3,14.9-4.7,17.2-11.9h10.9c-2.4,13-13.3,21.5-28.1,21.5s-30.9-13.8-30.9-31.9Z"
       id="path48" />
    <path
       class="st2"
       d="M832.4,496.6h-46.2c.6,12.3,7.8,20.7,19.3,20.7s14.1-3.6,16.2-10.4h10.5c-2.7,12.3-13,19.3-26.8,19.3s-30.1-12.5-30.1-31.6,12.9-32.9,29.6-32.9,27.7,10.3,27.7,31-.1,2.4-.2,3.8ZM786.2,488.6h35.8c-.1-10.7-7.1-18-17.1-18s-17.6,7.9-18.7,18Z"
       id="path49" />
    <path
       class="st2"
       d="M922.1,526.2c-24.9,0-41.2-18.6-41.2-44.3s16.4-45,41.2-45,33,10.4,36.1,28.4h-11.9c-3-10.8-11.5-18-24.1-18-18.2,0-29.9,15.6-29.9,34.6s12.2,33.8,29.8,33.8,22.2-7.1,25.5-17.2h11.9c-3.2,16.7-18.2,27.7-37.4,27.7Z"
       id="path50" />
    <path
       class="st2"
       d="M1027.9,496.6h-46.2c.6,12.3,7.8,20.7,19.3,20.7s14.1-3.6,16.2-10.4h10.5c-2.7,12.3-13,19.3-26.8,19.3s-30.1-12.5-30.1-31.6,12.9-32.9,29.6-32.9,27.7,10.3,27.7,31-.1,2.4-.2,3.8ZM981.8,488.6h35.8c-.1-10.7-7.1-18-17.1-18s-17.6,7.9-18.7,18Z"
       id="path51" />
    <path
       class="st2"
       d="M1042.9,463h9.8l1,7.4h.9c3.3-4.6,8.3-8.7,18-8.7s22.6,8.4,22.6,24.3v38.9h-10.8v-36.6c0-11.9-6.4-17.1-14.5-17.1s-16.1,5.5-16.1,18.4v35.3h-10.8v-62Z"
       id="path52" />
    <path
       class="st2"
       d="M1117.3,511v-39.2h-13.1v-8.8h4.2c7.3,0,9.9-2.5,9.9-9.2v-7.7h9.9v16.9h15.5v8.8h-15.5v37.7c0,4.5,1.7,7.8,7.8,7.8s4.2-.4,6.2-1v8.6c-2.2.6-5.2,1.4-9.1,1.4-12.9,0-15.9-8.1-15.9-15.3Z"
       id="path53" />
    <path
       class="st2"
       d="M1155,463h9.8l1,8.6h.9c3.2-5.6,7.6-9.8,17.7-9.8h3.6v10.9c-1.9-.2-3.6-.2-5.6-.2-10.8,0-16.6,8.4-16.6,20.1v32.5h-10.8v-62Z"
       id="path54" />
    <path
       class="st2"
       d="M1250.7,496.6h-46.2c.6,12.3,7.8,20.7,19.3,20.7s14.1-3.6,16.2-10.4h10.5c-2.7,12.3-13,19.3-26.8,19.3s-30.1-12.5-30.1-31.6,12.9-32.9,29.6-32.9,27.7,10.3,27.7,31-.1,2.4-.2,3.8ZM1204.6,488.6h35.8c-.1-10.7-7.1-18-17.1-18s-17.6,7.9-18.7,18Z"
       id="path55" />
  </g>
</svg>
